<?xml version="1.0" standalone="no"?>
<!DOCTYPE svg PUBLIC "-//W3C//DTD SVG 20010904//EN"
 "http://www.w3.org/TR/2001/REC-SVG-20010904/DTD/svg10.dtd">
<svg version="1.0" xmlns="http://www.w3.org/2000/svg"
 width="256.000000pt" height="256.000000pt" viewBox="0 0 256.000000 256.000000"
 preserveAspectRatio="xMidYMid meet">
<metadata>
Created by potrace 1.14, written by Peter Selinger 2001-2017
</metadata>
<g transform="translate(0.000000,256.000000) scale(0.100000,-0.100000)"
fill="#000000" stroke="none">
<path d="M192 2443 c-18 -9 -45 -32 -60 -51 -27 -35 -27 -36 -30 -241 -4 -240
0 -280 34 -320 46 -55 66 -59 277 -61 214 -1 245 5 290 60 15 17 29 45 32 63
4 18 5 130 3 249 -3 200 -5 219 -24 244 -50 67 -55 69 -282 72 -177 2 -212 0
-240 -15z"/>
<path d="M1061 2447 c-19 -7 -48 -29 -65 -50 l-31 -39 -3 -216 c-2 -120 -1
-231 3 -249 3 -18 17 -46 32 -63 45 -54 75 -60 284 -60 194 0 227 5 267 43 49
46 52 63 49 312 l-2 233 -31 39 c-17 21 -46 43 -65 50 -46 16 -392 16 -438 0z"/>
<path d="M1913 2444 c-17 -7 -44 -30 -60 -50 l-28 -37 -3 -228 c-3 -257 0
-277 64 -325 l37 -29 218 0 c239 0 243 1 293 69 20 26 21 41 21 270 l0 243
-27 35 c-48 62 -72 68 -290 67 -141 0 -201 -4 -225 -15z"/>
<path d="M190 1582 c-19 -11 -47 -37 -62 -58 l-27 -39 -1 -223 c0 -254 4 -273
73 -323 l40 -29 197 0 c212 0 246 6 285 52 44 51 45 58 42 301 l-2 234 -28 36
c-47 62 -60 65 -282 66 -178 1 -204 -1 -235 -17z"/>
<path d="M1055 1586 c-37 -17 -70 -52 -84 -89 -7 -17 -11 -115 -11 -242 0
-222 4 -252 43 -293 43 -46 76 -52 277 -52 213 0 241 7 287 67 l28 36 0 243
c0 229 -1 244 -21 270 -50 67 -55 69 -282 71 -158 2 -214 0 -237 -11z"/>
<path d="M1932 1593 c-12 -2 -40 -21 -61 -41 -50 -47 -53 -70 -49 -333 l3
-206 29 -37 c47 -62 70 -67 296 -66 l199 2 39 28 c70 50 74 70 70 328 -3 253
-5 259 -76 307 -33 23 -41 23 -231 23 -108 0 -206 -2 -219 -5z"/>
<path d="M1904 736 c-17 -8 -44 -31 -60 -52 l-29 -37 0 -248 c0 -234 1 -249
21 -275 51 -68 53 -69 299 -69 210 0 225 1 251 21 67 50 69 55 72 287 2 117 1
231 -3 254 -7 51 -44 98 -92 118 -49 21 -413 21 -459 1z"/>
<path d="M194 726 c-17 -8 -44 -31 -60 -52 l-29 -37 -3 -216 c-2 -119 0 -231
3 -249 8 -44 56 -96 102 -111 27 -9 97 -11 234 -9 l196 3 36 28 c62 47 67 72
67 314 0 241 -5 263 -68 311 l-35 27 -206 2 c-158 2 -213 0 -237 -11z"/>
<path d="M1055 724 c-46 -24 -74 -54 -86 -93 -7 -22 -9 -121 -7 -258 3 -243 4
-247 72 -297 26 -20 41 -21 245 -21 l218 0 36 28 c64 49 66 58 66 315 l0 231
-32 43 c-19 25 -47 48 -67 55 -22 7 -105 12 -225 12 -153 1 -196 -2 -220 -15z"/>
</g>
</svg>
